<svg xmlns="http://www.w3.org/2000/svg" version="1.1" xmlns:xlink="http://www.w3.org/1999/xlink" xmlns:svgjs="http://svgjs.dev/svgjs" viewBox="0 0 800 800" opacity="0.96"><defs><symbol id="bbburst-shape-1" viewBox="0 0 194 167"><path d="m97 0 96.129 166.5H.871L97 0Z"></path></symbol><symbol id="bbburst-shape-4" viewBox="0 0 149 143"><path d="M71.647 2.781c.898-2.764 4.808-2.764 5.706 0l15.445 47.534a3 3 0 0 0 2.853 2.073h49.98c2.906 0 4.115 3.719 1.764 5.427L106.96 87.193a2.999 2.999 0 0 0-1.09 3.354l15.445 47.534c.898 2.764-2.266 5.062-4.617 3.354l-40.435-29.378a3 3 0 0 0-3.526 0l-40.435 29.378c-2.351 1.708-5.515-.59-4.617-3.354L43.13 90.547a3 3 0 0 0-1.09-3.354L1.605 57.815c-2.35-1.708-1.142-5.427 1.764-5.427h49.98a3 3 0 0 0 2.853-2.073L71.647 2.781Z"></path></symbol><symbol id="bbburst-shape-5" viewBox="0 0 145 145"><circle cx="72.5" cy="72.5" r="72.5"></circle></symbol><symbol id="bbburst-shape-6" viewBox="0 0 133 116"><path d="M59.7487 10.2513c-13.6683-13.66839-35.8291-13.66839-49.4974 0-13.66839 13.6683-13.66839 35.8291 0 49.4974l49.4974-49.4974ZM66.5 66.5 41.7513 91.2487 66.5 115.997l24.7487-24.7483L66.5 66.5Zm56.249-6.7513c13.668-13.6683 13.668-35.8291 0-49.4974-13.669-13.66839-35.8294-13.66839-49.4977 0l49.4977 49.4974Zm-112.4977 0 31.5 31.5 49.4974-49.4974-31.5-31.5-49.4974 49.4974Zm80.9974 31.5 31.5003-31.5-49.4977-49.4974-31.5 31.5 49.4974 49.4974Z"></path></symbol><symbol id="bbburst-shape-8" viewBox="0 0 87 168"><path d="m12 12 31.2546 18.0749c16.4102 9.4902 20.014 31.6325 7.4603 45.8369L36.3296 92.1884c-12.5684 14.2206-8.9394 36.3916 7.5068 45.8636L75 156" stroke-width="14" stroke-linecap="round" stroke-linejoin="round"></path></symbol><symbol id="bbburst-shape-10" viewBox="0 0 145 145"><circle cx="72.5" cy="72.5" r="61.5" fill="none" stroke-width="22"></circle></symbol><symbol id="bbburst-shape-12" viewBox="0 0 170 151"><path d="M69.3728 54.2122 85 10.0031l15.627 44.2091c1.413 3.9958 5.19 6.6672 9.428 6.6673h49.312l-39.149 26.1447c-3.803 2.5401-5.399 7.3367-3.875 11.6488l15.179 42.94-40.9683-27.36c-3.3621-2.245-7.7453-2.245-11.1074 0l-40.9682 27.36 15.1785-42.94c1.5243-4.3121-.0712-9.1087-3.8746-11.6488L10.6333 60.8795h49.3112c4.2381-.0001 8.0159-2.6715 9.4283-6.6673Z" stroke-width="12"></path></symbol></defs><use xlink:href="#bbburst-shape-1" width="41.853158068314265" opacity="0.21578601130268238" transform="matrix(0.8816829958773036,-0.47184223505407263,0.47184223505407263,0.8816829958773036,-158.8487565696472,28.05466244948491)" fill="#ffa6d5"></use><use xlink:href="#bbburst-shape-4" width="50.917437450501225" opacity="0.10899459631289932" transform="matrix(0.95245185807492,-0.30468911705151586,0.30468911705151586,0.95245185807492,600.7497066928914,-174.3048334077718)" fill="#2c2891"></use><use xlink:href="#bbburst-shape-10" width="26.843708266408022" opacity="0.9110489127327273" transform="matrix(0.7244333163503636,0.6893448847722119,-0.6893448847722119,0.7244333163503636,625.9878644422147,100.67294475998227)" fill="none" stroke="#2c2891"></use><use xlink:href="#bbburst-shape-1" width="47.5429564691664" opacity="0.25405468053140634" transform="matrix(0.8326878120413272,-0.5537427269751065,0.5537427269751065,0.8326878120413272,76.26437036586745,-245.24568459188532)" fill="#2c2891"></use><use xlink:href="#bbburst-shape-6" width="49.246540553618956" opacity="0.07685329407440011" transform="matrix(0.7852594294580081,0.619166882550483,-0.619166882550483,0.7852594294580081,290.0605198871046,311.78083828436274)" fill="#ffa6d5"></use><use xlink:href="#bbburst-shape-4" width="35.51255428978093" opacity="0.6031106106036668" transform="matrix(0.9999494039385388,0.01005930230985407,-0.01005930230985407,0.9999494039385388,268.2969754141885,133.96669250091196)" fill="#ffa6d5"></use><use xlink:href="#bbburst-shape-6" width="29.934125152876238" opacity="0.7516756608642982" transform="matrix(0.8945271946737071,-0.44701353222155105,0.44701353222155105,0.8945271946737071,276.3924787022461,-39.34195178818362)" fill="#2c2891"></use><use xlink:href="#bbburst-shape-6" width="38.07990087363535" opacity="0.6198668222433341" transform="matrix(0.8735424769763787,0.4867479233833185,-0.4867479233833185,0.8735424769763787,499.17344347245154,-110.46485463812692)" fill="#ffa6d5"></use><use xlink:href="#bbburst-shape-4" width="57.77310101938981" opacity="0.27078975474518985" transform="matrix(0.9706632404752934,-0.24044307765041326,0.24044307765041326,0.9706632404752934,287.44859856320284,346.6688582733091)" fill="#2c2891"></use><use xlink:href="#bbburst-shape-1" width="38.13245634417935" opacity="0.5215279786534008" transform="matrix(0.9749128348345026,0.2225869818182408,-0.2225869818182408,0.9749128348345026,257.10911912241164,-23.334880415833993)" fill="#00a19d"></use><use xlink:href="#bbburst-shape-8" width="39.39358635280222" opacity="0.3864049201006724" transform="matrix(0.7885542521781046,-0.6149651952524062,0.6149651952524062,0.7885542521781046,368.1093763572827,-56.64595406517029)" fill="none" stroke="#00a19d"></use><use xlink:href="#bbburst-shape-5" width="27.155606928873258" opacity="0.8287075083498882" transform="matrix(0.9715801701493172,-0.23671073691876315,0.23671073691876315,0.9715801701493172,271.8827510092235,-59.79464551049904)" fill="#2c2891"></use><use xlink:href="#bbburst-shape-8" width="49.86344833215839" opacity="-0.043337497990485474" transform="matrix(0.9998571589629901,-0.0169015286426406,0.0169015286426406,0.9998571589629901,689.5841459424375,342.8463577468343)" fill="none" stroke="#00a19d"></use><use xlink:href="#bbburst-shape-12" width="47.60237098069012" opacity="0.21452105400980415" transform="matrix(0.9234738355984243,0.3836614066662613,-0.3836614066662613,0.9234738355984243,876.5293460772305,-55.444369170904736)" fill="none" stroke="#ffa6d5"></use><use xlink:href="#bbburst-shape-6" width="33.962643115133204" opacity="0.4325701680951912" transform="matrix(0.9945548261620918,0.10421467150882065,-0.10421467150882065,0.9945548261620918,678.6055065604689,-27.54663781520628)" fill="#ff5c58"></use><use xlink:href="#bbburst-shape-12" width="42.60726533079421" opacity="0.21347329377336488" transform="matrix(0.9573151769377745,-0.2890461070566384,0.2890461070566384,0.9573151769377745,506.12532609170944,-234.96960431769497)" fill="none" stroke="#ffa6d5"></use><use xlink:href="#bbburst-shape-10" width="28.053304450260004" opacity="0.9224291502685794" transform="matrix(0.9947798714009679,0.10204414464080558,-0.10204414464080558,0.9947798714009679,460.47032520095695,-8.783661714978905)" fill="none" stroke="#2c2891"></use><use xlink:href="#bbburst-shape-8" width="40.07513169984663" opacity="0.34460807795900905" transform="matrix(0.9044867302156885,-0.4265017641976788,0.4265017641976788,0.9044867302156885,-58.839881160801156,-71.65130111935787)" fill="none" stroke="#00a19d"></use><use xlink:href="#bbburst-shape-4" width="46.771484357205225" opacity="0.4994081092046866" transform="matrix(0.9937307875464195,0.11179947174460557,-0.11179947174460557,0.9937307875464195,595.1073437079797,143.45200438608344)" fill="#2c2891"></use><use xlink:href="#bbburst-shape-10" width="41.63102393154689" opacity="0.35516416608686285" transform="matrix(0.9924815912073532,0.12239399950373468,-0.12239399950373468,0.9924815912073532,697.3334758794555,109.1906193375122)" fill="none" stroke="#ff5c58"></use><use xlink:href="#bbburst-shape-12" width="48.00025944334389" opacity="0.4173540549350807" transform="matrix(0.9659938687295508,0.25856497360801867,-0.25856497360801867,0.9659938687295508,327.9136453165031,-206.07225152401332)" fill="none" stroke="#00a19d"></use><use xlink:href="#bbburst-shape-6" width="35.3954818469814" opacity="0.7032467894547084" transform="matrix(0.9564819019903942,-0.291791657120004,0.291791657120004,0.9564819019903942,361.61631139787863,116.15639040462042)" fill="#2c2891"></use><use xlink:href="#bbburst-shape-4" width="37.31558533461288" opacity="0.21647782130194893" transform="matrix(0.9613859421625703,-0.2752036885875387,0.2752036885875387,0.9613859421625703,23.57344960847783,-229.59733999807048)" fill="#ffa6d5"></use><use xlink:href="#bbburst-shape-4" width="46.74249666375117" opacity="0.23900016799526436" transform="matrix(0.8321486945574899,0.5545525675229225,-0.5545525675229225,0.8321486945574899,837.2294685108418,303.42024807492754)" fill="#00a19d"></use><use xlink:href="#bbburst-shape-5" width="27.711039694861594" opacity="0.675062283974361" transform="matrix(0.8531601247802052,0.5216491172090917,-0.5216491172090917,0.8531601247802052,575.7275346470207,196.19820027114326)" fill="#ffa6d5"></use><use xlink:href="#bbburst-shape-4" width="34.787274451114094" opacity="0.5933505434387897" transform="matrix(0.9906600334771042,-0.13635504417198074,0.13635504417198074,0.9906600334771042,508.7589794985799,36.06938983520689)" fill="#ffbd9b"></use><use xlink:href="#bbburst-shape-8" width="24.803719242977966" opacity="0.7634373803893268" transform="matrix(0.9867004526011504,0.16254912130394641,-0.16254912130394641,0.9867004526011504,558.9522402358814,-4.462426976356767)" fill="none" stroke="#2c2891"></use><use xlink:href="#bbburst-shape-5" width="36.56100380500836" opacity="0.39920443973319497" transform="matrix(0.9994393172612229,-0.0334821013740278,0.0334821013740278,0.9994393172612229,102.4321396185732,49.70456489002959)" fill="#ffa6d5"></use><use xlink:href="#bbburst-shape-4" width="27.419489487107235" opacity="0.843939657405916" transform="matrix(0.9801801515546793,-0.19810822925422847,0.19810822925422847,0.9801801515546793,327.68316779832213,77.87953202194274)" fill="#ffbd9b"></use><use xlink:href="#bbburst-shape-12" width="36.27841119137636" opacity="0.4637654763708917" transform="matrix(0.9911187297918403,0.1329799362904382,-0.1329799362904382,0.9911187297918403,424.41333503805834,-239.98811158130653)" fill="none" stroke="#ffbd9b"></use><use xlink:href="#bbburst-shape-6" width="46.751678507522065" opacity="0.1883075769969138" transform="matrix(0.9628846687747209,-0.2699131612919163,0.2699131612919163,0.9628846687747209,-75.80710503695735,140.15458568267172)" fill="#ffbd9b"></use><use xlink:href="#bbburst-shape-12" width="39.717847152203916" opacity="0.39051155622647993" transform="matrix(0.8500827553192359,0.5266491328283529,-0.5266491328283529,0.8500827553192359,714.2728275805371,295.8491977961614)" fill="none" stroke="#ff5c58"></use><use xlink:href="#bbburst-shape-5" width="32.62567325943625" opacity="0.7971012959091972" transform="matrix(0.8581114739661079,0.5134634341875902,-0.5134634341875902,0.8581114739661079,524.6731203154711,110.71504247819115)" fill="#00a19d"></use><use xlink:href="#bbburst-shape-4" width="50.827892479803566" opacity="-0.05459313184934933" transform="matrix(0.9908081860560638,0.13527430814568003,-0.13527430814568003,0.9908081860560638,94.02410761830733,-335.95409494273713)" fill="#00a19d"></use><use xlink:href="#bbburst-shape-8" width="49.54664656727358" opacity="-0.05897852621258748" transform="matrix(0.9941441229543139,-0.10806230978189463,0.10806230978189463,0.9941441229543139,667.4810885482759,-333.56830099299714)" fill="none" stroke="#2c2891"></use><use xlink:href="#bbburst-shape-1" width="35.068247763414085" opacity="0.5563081936351466" transform="matrix(0.723750130910583,0.6900621334393838,-0.6900621334393838,0.723750130910583,496.3915271168528,-11.134655399774545)" fill="#2c2891"></use><use xlink:href="#bbburst-shape-10" width="42.492449589278" opacity="0.21521285157231795" transform="matrix(0.9138656606112522,-0.40601669221296754,0.40601669221296754,0.9138656606112522,253.51185118814598,-308.3020224490959)" fill="none" stroke="#ffbd9b"></use><use xlink:href="#bbburst-shape-5" width="38.576876647928046" opacity="0.11468120728699827" transform="matrix(0.7447635087578484,0.6673284918409361,-0.6673284918409361,0.7447635087578484,462.4149102916314,-260.8626762255653)" fill="#2c2891"></use><use xlink:href="#bbburst-shape-6" width="40.37337884081688" opacity="0.11182796649928539" transform="matrix(0.9761595627230463,-0.21705415938044392,0.21705415938044392,0.9761595627230463,-58.71336665966715,-175.0442098242791)" fill="#2c2891"></use><use xlink:href="#bbburst-shape-6" width="28.194352808267375" opacity="0.7485337573528369" transform="matrix(0.999979050694096,-0.006472879802262615,0.006472879802262615,0.999979050694096,279.2995780660884,-44.466353644080414)" fill="#ffa6d5"></use><use xlink:href="#bbburst-shape-4" width="37.16105182663696" opacity="0.6388264584673496" transform="matrix(0.9951683522845525,-0.09818325015627058,0.09818325015627058,0.9951683522845525,186.33677825497236,49.723337338078125)" fill="#2c2891"></use><use xlink:href="#bbburst-shape-12" width="39.80823959850122" opacity="0.20485837028636633" transform="matrix(0.73214337378672,-0.6811505562063348,0.6811505562063348,0.73214337378672,466.46654293114864,175.7298808891628)" fill="none" stroke="#ffa6d5"></use><use xlink:href="#bbburst-shape-4" width="47.95966040276321" opacity="0.10089328064977088" transform="matrix(0.9725914914588402,-0.23252051681920197,0.23252051681920197,0.9725914914588402,631.8763664346718,222.635753063015)" fill="#ffbd9b"></use><use xlink:href="#bbburst-shape-6" width="41.990650173673494" opacity="0.17344680778388966" transform="matrix(0.9999997468668377,-0.0007115239002739368,0.0007115239002739368,0.9999997468668377,258.949798724358,352.1534110992891)" fill="#ff5c58"></use><use xlink:href="#bbburst-shape-10" width="29.141486672149455" opacity="0.6652945924501492" transform="matrix(0.7471242506716673,-0.6646844018466956,0.6646844018466956,0.7471242506716673,131.87783666039127,-39.53429640720043)" fill="none" stroke="#ffa6d5"></use><use xlink:href="#bbburst-shape-8" width="32.088496506155934" opacity="0.5548128495164207" transform="matrix(0.9999061339637682,0.013701213874362307,-0.013701213874362307,0.9999061339637682,434.4296455323702,195.0343372308464)" fill="none" stroke="#2c2891"></use><use xlink:href="#bbburst-shape-5" width="43.235540099967096" opacity="0.5942380836189135" transform="matrix(0.9998689774606317,0.016187276232608905,-0.016187276232608905,0.9998689774606317,543.2896849226872,-91.07299386038852)" fill="#00a19d"></use><use xlink:href="#bbburst-shape-1" width="50.52538379264726" opacity="0.39832451808237834" transform="matrix(0.9661895224921634,0.2578329044679232,-0.2578329044679232,0.9661895224921634,259.139677617533,165.49557910245971)" fill="#ffa6d5"></use><use xlink:href="#bbburst-shape-1" width="45.30511695262101" opacity="0.44804329554686273" transform="matrix(0.991206664323536,0.13232289522455642,-0.13232289522455642,0.991206664323536,344.9949048300489,233.78842370055293)" fill="#00a19d"></use><use xlink:href="#bbburst-shape-5" width="34.28318476077571" opacity="0.34770309149755896" transform="matrix(0.8958318982380928,-0.4443930806157261,0.4443930806157261,0.8958318982380928,323.9696976769802,-219.88715729087568)" fill="#2c2891"></use><use xlink:href="#bbburst-shape-6" width="31.98839956407014" opacity="0.10943422445408979" transform="matrix(0.9691198382948301,-0.2465902249145382,0.2465902249145382,0.9691198382948301,472.0720513020985,-338.570724726868)" fill="#ff5c58"></use><use xlink:href="#bbburst-shape-10" width="35.22705379202887" opacity="0.5408630062421556" transform="matrix(0.9449931238132503,-0.3270901954288373,0.3270901954288373,0.9449931238132503,353.39783224465293,-152.5465460140422)" fill="none" stroke="#ff5c58"></use><use xlink:href="#bbburst-shape-1" width="40.772301302462964" opacity="-0.047897655530978245" transform="matrix(0.8442712254523873,-0.5359161295138672,0.5359161295138672,0.8442712254523873,-144.23389582651964,426.23668155253506)" fill="#ffa6d5"></use><use xlink:href="#bbburst-shape-10" width="40.829918286748544" opacity="0.22783165890827606" transform="matrix(0.8721201649885928,0.48929175122851776,-0.48929175122851776,0.8721201649885928,370.3536925999946,319.8363126889507)" fill="none" stroke="#2c2891"></use><use xlink:href="#bbburst-shape-6" width="46.38351556157374" opacity="0.14855473442293" transform="matrix(0.9999972355776084,0.002351347941326481,-0.002351347941326481,0.9999972355776084,528.9957547118393,351.98200572976344)" fill="#00a19d"></use></svg>