<svg xmlns="http://www.w3.org/2000/svg" version="1.1" xmlns:xlink="http://www.w3.org/1999/xlink" xmlns:svgjs="http://svgjs.dev/svgjs" viewBox="0 0 1422 800"><circle r="9.5" cx="1122" cy="400" fill="hsl(144, 50%, 50%)" opacity="0.62"></circle><circle r="10" cx="504" cy="623" stroke-width="2" stroke="hsl(181, 50%, 50%)" fill="none" opacity="0.85"></circle><circle r="10" cx="1174" cy="387" fill="hsl(149, 50%, 50%)" opacity="0.68"></circle><circle r="10" cx="1206" cy="538" stroke-width="2" stroke="hsl(159, 50%, 50%)" fill="none" opacity="0.50"></circle><circle r="11.5" cx="1307" cy="627" stroke-width="2" stroke="hsl(191, 50%, 50%)" fill="none" opacity="0.23"></circle><circle r="12.5" cx="23" cy="151" fill="hsl(207, 50%, 50%)" opacity="0.61"></circle><circle r="10" cx="303" cy="263" fill="hsl(153, 50%, 50%)" opacity="0.81"></circle><circle r="9.5" cx="354" cy="775" fill="hsl(159, 50%, 50%)" opacity="0.29"></circle><circle r="10.5" cx="369" cy="660" stroke-width="2" stroke="hsl(162, 50%, 50%)" fill="none" opacity="0.63"></circle><circle r="10.5" cx="1153" cy="554" stroke-width="2" stroke="hsl(145, 50%, 50%)" fill="none" opacity="0.43"></circle><circle r="11" cx="77" cy="469" fill="hsl(188, 50%, 50%)" opacity="0.74"></circle><circle r="10.5" cx="372" cy="445" fill="hsl(162, 50%, 50%)" opacity="0.17"></circle><circle r="8" cx="1128" cy="738" fill="hsl(144, 50%, 50%)" opacity="0.75"></circle><circle r="11" cx="730" cy="172" fill="hsl(183, 50%, 50%)" opacity="0.27"></circle><circle r="11.5" cx="553" cy="497" stroke-width="2" stroke="hsl(182, 50%, 50%)" fill="none" opacity="0.83"></circle><circle r="11" cx="1180" cy="176" stroke-width="2" stroke="hsl(156, 50%, 50%)" fill="none" opacity="0.70"></circle><circle r="9.5" cx="218" cy="652" stroke-width="2" stroke="hsl(152, 50%, 50%)" fill="none" opacity="0.81"></circle><circle r="9.5" cx="991" cy="630" stroke-width="2" stroke="hsl(154, 50%, 50%)" fill="none" opacity="0.69"></circle><circle r="8.5" cx="255" cy="193" fill="hsl(150, 50%, 50%)" opacity="0.92"></circle><circle r="11.5" cx="1308" cy="241" stroke-width="2" stroke="hsl(191, 50%, 50%)" fill="none" opacity="0.22"></circle><circle r="10.5" cx="822" cy="681" stroke-width="2" stroke="hsl(169, 50%, 50%)" fill="none" opacity="0.23"></circle><circle r="11" cx="391" cy="500" stroke-width="2" stroke="hsl(166, 50%, 50%)" fill="none" opacity="0.75"></circle><circle r="9" cx="1317" cy="20" fill="hsl(190, 50%, 50%)" opacity="0.20"></circle><circle r="9.5" cx="208" cy="271" fill="hsl(152, 50%, 50%)" opacity="0.76"></circle><circle r="10.5" cx="111" cy="228" fill="hsl(172, 50%, 50%)" opacity="0.80"></circle><circle r="10" cx="1133" cy="346" fill="hsl(145, 50%, 50%)" opacity="0.35"></circle><circle r="12.5" cx="1353" cy="446" fill="hsl(211, 50%, 50%)" opacity="0.81"></circle><circle r="11.5" cx="452" cy="321" fill="hsl(177, 50%, 50%)" opacity="0.71"></circle><circle r="11" cx="747" cy="590" stroke-width="2" stroke="hsl(171, 50%, 50%)" fill="none" opacity="0.68"></circle><circle r="10" cx="452" cy="497" fill="hsl(177, 50%, 50%)" opacity="0.28"></circle><circle r="10.5" cx="575" cy="687" fill="hsl(182, 50%, 50%)" opacity="0.27"></circle><circle r="9" cx="1192" cy="594" fill="hsl(153, 50%, 50%)" opacity="0.20"></circle><circle r="11" cx="643" cy="319" fill="hsl(177, 50%, 50%)" opacity="0.11"></circle><circle r="9.5" cx="1039" cy="309" stroke-width="2" stroke="hsl(148, 50%, 50%)" fill="none" opacity="0.97"></circle><circle r="11" cx="873" cy="328" stroke-width="2" stroke="hsl(167, 50%, 50%)" fill="none" opacity="0.82"></circle><circle r="11" cx="513" cy="413" fill="hsl(182, 50%, 50%)" opacity="0.97"></circle><circle r="11" cx="421" cy="71" fill="hsl(186, 50%, 50%)" opacity="0.93"></circle><circle r="9.5" cx="566" cy="778" stroke-width="2" stroke="hsl(182, 50%, 50%)" fill="none" opacity="0.18"></circle><circle r="9.5" cx="1048" cy="509" fill="hsl(145, 50%, 50%)" opacity="0.85"></circle><circle r="9.5" cx="330" cy="469" stroke-width="2" stroke="hsl(155, 50%, 50%)" fill="none" opacity="0.98"></circle><circle r="11" cx="653" cy="575" stroke-width="2" stroke="hsl(175, 50%, 50%)" fill="none" opacity="0.47"></circle><circle r="10" cx="425" cy="459" fill="hsl(174, 50%, 50%)" opacity="0.52"></circle><circle r="14" cx="1341" cy="384" stroke-width="2" stroke="hsl(211, 50%, 50%)" fill="none" opacity="0.99"></circle><circle r="9.5" cx="1179" cy="67" fill="hsl(164, 50%, 50%)" opacity="0.52"></circle><circle r="9.5" cx="188" cy="772" stroke-width="2" stroke="hsl(155, 50%, 50%)" fill="none" opacity="0.30"></circle><circle r="10.5" cx="1158" cy="498" stroke-width="2" stroke="hsl(149, 50%, 50%)" fill="none" opacity="0.54"></circle><circle r="12" cx="813" cy="432" fill="hsl(170, 50%, 50%)" opacity="1.00"></circle><circle r="12" cx="28" cy="82" stroke-width="2" stroke="hsl(206, 50%, 50%)" fill="none" opacity="0.74"></circle><circle r="11" cx="455" cy="160" stroke-width="2" stroke="hsl(182, 50%, 50%)" fill="none" opacity="0.57"></circle><circle r="11" cx="897" cy="130" fill="hsl(177, 50%, 50%)" opacity="0.90"></circle><circle r="11.5" cx="590" cy="332" stroke-width="2" stroke="hsl(180, 50%, 50%)" fill="none" opacity="0.76"></circle><circle r="10.5" cx="967" cy="369" fill="hsl(157, 50%, 50%)" opacity="0.32"></circle><circle r="11" cx="535" cy="323" fill="hsl(182, 50%, 50%)" opacity="0.82"></circle><circle r="12" cx="791" cy="103" stroke-width="2" stroke="hsl(203, 50%, 50%)" fill="none" opacity="0.14"></circle><circle r="12" cx="745" cy="432" stroke-width="2" stroke="hsl(171, 50%, 50%)" fill="none" opacity="0.46"></circle><circle r="10" cx="365" cy="392" fill="hsl(162, 50%, 50%)" opacity="0.55"></circle><circle r="9" cx="1133" cy="138" stroke-width="2" stroke="hsl(148, 50%, 50%)" fill="none" opacity="0.86"></circle><circle r="15" cx="668" cy="28" fill="hsl(251, 50%, 50%)" opacity="0.84"></circle><circle r="9" cx="1026" cy="115" fill="hsl(151, 50%, 50%)" opacity="0.12"></circle><circle r="9.5" cx="206" cy="167" fill="hsl(147, 50%, 50%)" opacity="0.92"></circle><circle r="8.5" cx="1149" cy="613" fill="hsl(145, 50%, 50%)" opacity="0.66"></circle><circle r="10.5" cx="882" cy="602" fill="hsl(167, 50%, 50%)" opacity="0.69"></circle><circle r="10" cx="732" cy="670" stroke-width="2" stroke="hsl(171, 50%, 50%)" fill="none" opacity="0.50"></circle><circle r="11" cx="680" cy="673" stroke-width="2" stroke="hsl(173, 50%, 50%)" fill="none" opacity="0.78"></circle><circle r="9.5" cx="162" cy="724" stroke-width="2" stroke="hsl(159, 50%, 50%)" fill="none" opacity="0.52"></circle><circle r="9" cx="1070" cy="774" stroke-width="2" stroke="hsl(144, 50%, 50%)" fill="none" opacity="0.16"></circle><circle r="13" cx="586" cy="131" stroke-width="2" stroke="hsl(218, 50%, 50%)" fill="none" opacity="0.62"></circle><circle r="11" cx="115" cy="338" stroke-width="2" stroke="hsl(172, 50%, 50%)" fill="none" opacity="0.82"></circle><circle r="11" cx="466" cy="431" fill="hsl(177, 50%, 50%)" opacity="0.84"></circle><circle r="10.5" cx="965" cy="576" stroke-width="2" stroke="hsl(157, 50%, 50%)" fill="none" opacity="0.98"></circle><circle r="10" cx="982" cy="316" fill="hsl(154, 50%, 50%)" opacity="0.62"></circle><circle r="10" cx="160" cy="82" stroke-width="2" stroke="hsl(143, 50%, 50%)" fill="none" opacity="0.49"></circle><circle r="10" cx="1070" cy="416" fill="hsl(144, 50%, 50%)" opacity="0.49"></circle><circle r="9" cx="1023" cy="24" fill="hsl(148, 50%, 50%)" opacity="0.62"></circle><circle r="11.5" cx="762" cy="221" stroke-width="2" stroke="hsl(170, 50%, 50%)" fill="none" opacity="0.78"></circle><circle r="11" cx="1296" cy="186" fill="hsl(191, 50%, 50%)" opacity="0.56"></circle><circle r="10" cx="1361" cy="23" fill="hsl(200, 50%, 50%)" opacity="0.97"></circle><circle r="10.5" cx="833" cy="629" fill="hsl(169, 50%, 50%)" opacity="0.91"></circle><circle r="11.5" cx="727" cy="276" stroke-width="2" stroke="hsl(171, 50%, 50%)" fill="none" opacity="0.31"></circle><circle r="9.5" cx="176" cy="678" stroke-width="2" stroke="hsl(159, 50%, 50%)" fill="none" opacity="0.32"></circle><circle r="11.5" cx="702" cy="219" stroke-width="2" stroke="hsl(172, 50%, 50%)" fill="none" opacity="0.79"></circle><circle r="10" cx="103" cy="75" stroke-width="2" stroke="hsl(169, 50%, 50%)" fill="none" opacity="0.36"></circle><circle r="11" cx="702" cy="618" stroke-width="2" stroke="hsl(172, 50%, 50%)" fill="none" opacity="0.38"></circle><circle r="11" cx="1227" cy="431" fill="hsl(166, 50%, 50%)" opacity="0.59"></circle><circle r="10" cx="1035" cy="457" fill="hsl(148, 50%, 50%)" opacity="0.69"></circle><circle r="10.5" cx="1272" cy="399" stroke-width="2" stroke="hsl(182, 50%, 50%)" fill="none" opacity="0.29"></circle><circle r="11" cx="489" cy="572" fill="hsl(181, 50%, 50%)" opacity="0.56"></circle><circle r="9" cx="257" cy="242" fill="hsl(150, 50%, 50%)" opacity="0.62"></circle><circle r="11.5" cx="535" cy="231" stroke-width="2" stroke="hsl(182, 50%, 50%)" fill="none" opacity="0.46"></circle><circle r="10" cx="1320" cy="63" fill="hsl(197, 50%, 50%)" opacity="0.50"></circle><circle r="12" cx="65" cy="250" fill="hsl(198, 50%, 50%)" opacity="0.93"></circle><circle r="11" cx="1266" cy="467" fill="hsl(173, 50%, 50%)" opacity="0.60"></circle><circle r="9" cx="320" cy="740" stroke-width="2" stroke="hsl(155, 50%, 50%)" fill="none" opacity="0.78"></circle><circle r="9.5" cx="353" cy="244" fill="hsl(159, 50%, 50%)" opacity="0.83"></circle><circle r="15" cx="1390" cy="771" fill="hsl(232, 50%, 50%)" opacity="0.18"></circle><circle r="11" cx="78" cy="420" stroke-width="2" stroke="hsl(188, 50%, 50%)" fill="none" opacity="0.65"></circle><circle r="9.5" cx="1012" cy="407" stroke-width="2" stroke="hsl(151, 50%, 50%)" fill="none" opacity="0.33"></circle><circle r="12.5" cx="25" cy="395" fill="hsl(208, 50%, 50%)" opacity="0.59"></circle><circle r="12" cx="1399" cy="468" fill="hsl(232, 50%, 50%)" opacity="0.70"></circle><circle r="10" cx="316" cy="417" fill="hsl(155, 50%, 50%)" opacity="0.70"></circle><circle r="9.5" cx="980" cy="175" fill="hsl(156, 50%, 50%)" opacity="0.99"></circle><circle r="9.5" cx="1177" cy="441" fill="hsl(149, 50%, 50%)" opacity="0.44"></circle><circle r="11" cx="74" cy="631" stroke-width="2" stroke="hsl(188, 50%, 50%)" fill="none" opacity="0.97"></circle><circle r="11.5" cx="72" cy="368" fill="hsl(188, 50%, 50%)" opacity="0.34"></circle><circle r="12.5" cx="792" cy="171" fill="hsl(180, 50%, 50%)" opacity="0.96"></circle><circle r="14" cx="1395" cy="352" stroke-width="2" stroke="hsl(232, 50%, 50%)" fill="none" opacity="0.17"></circle><circle r="11" cx="905" cy="373" stroke-width="2" stroke="hsl(165, 50%, 50%)" fill="none" opacity="0.78"></circle><circle r="10" cx="163" cy="199" fill="hsl(159, 50%, 50%)" opacity="0.14"></circle><circle r="9.5" cx="217" cy="714" stroke-width="2" stroke="hsl(152, 50%, 50%)" fill="none" opacity="0.46"></circle><circle r="9" cx="460" cy="622" fill="hsl(177, 50%, 50%)" opacity="0.16"></circle><circle r="10.5" cx="538" cy="653" stroke-width="2" stroke="hsl(182, 50%, 50%)" fill="none" opacity="0.73"></circle><circle r="10" cx="745" cy="526" fill="hsl(171, 50%, 50%)" opacity="0.30"></circle><circle r="10" cx="1185" cy="774" stroke-width="2" stroke="hsl(153, 50%, 50%)" fill="none" opacity="0.20"></circle><circle r="11.5" cx="780" cy="479" fill="hsl(170, 50%, 50%)" opacity="0.87"></circle><circle r="11" cx="645" cy="371" stroke-width="2" stroke="hsl(175, 50%, 50%)" fill="none" opacity="0.64"></circle><circle r="10.5" cx="828" cy="508" fill="hsl(169, 50%, 50%)" opacity="0.61"></circle><circle r="11.5" cx="1311" cy="493" fill="hsl(201, 50%, 50%)" opacity="0.85"></circle><circle r="10.5" cx="790" cy="545" fill="hsl(170, 50%, 50%)" opacity="0.26"></circle><circle r="7.5" cx="504" cy="782" stroke-width="2" stroke="hsl(181, 50%, 50%)" fill="none" opacity="0.16"></circle><circle r="12.5" cx="496" cy="23" fill="hsl(241, 50%, 50%)" opacity="0.87"></circle><circle r="8.5" cx="1186" cy="21" fill="hsl(164, 50%, 50%)" opacity="0.49"></circle><circle r="10" cx="937" cy="415" stroke-width="2" stroke="hsl(160, 50%, 50%)" fill="none" opacity="0.51"></circle><circle r="8.5" cx="402" cy="741" stroke-width="2" stroke="hsl(170, 50%, 50%)" fill="none" opacity="0.79"></circle><circle r="10" cx="238" cy="772" stroke-width="2" stroke="hsl(151, 50%, 50%)" fill="none" opacity="0.28"></circle><circle r="12.5" cx="1398" cy="293" stroke-width="2" stroke="hsl(232, 50%, 50%)" fill="none" opacity="0.44"></circle><circle r="9" cx="1084" cy="25" fill="hsl(147, 50%, 50%)" opacity="0.27"></circle><circle r="11.5" cx="824" cy="235" fill="hsl(169, 50%, 50%)" opacity="0.39"></circle><circle r="11.5" cx="68" cy="311" fill="hsl(188, 50%, 50%)" opacity="0.53"></circle><circle r="11.5" cx="784" cy="273" fill="hsl(170, 50%, 50%)" opacity="0.51"></circle><circle r="13.5" cx="1349" cy="670" stroke-width="2" stroke="hsl(211, 50%, 50%)" fill="none" opacity="0.36"></circle><circle r="11" cx="408" cy="353" stroke-width="2" stroke="hsl(170, 50%, 50%)" fill="none" opacity="0.78"></circle><circle r="13" cx="31" cy="27" stroke-width="2" stroke="hsl(205, 50%, 50%)" fill="none" opacity="0.53"></circle><circle r="10.5" cx="474" cy="670" fill="hsl(179, 50%, 50%)" opacity="0.77"></circle><circle r="11" cx="669" cy="460" stroke-width="2" stroke="hsl(173, 50%, 50%)" fill="none" opacity="0.66"></circle><circle r="11" cx="869" cy="275" stroke-width="2" stroke="hsl(167, 50%, 50%)" fill="none" opacity="0.20"></circle><circle r="10.5" cx="84" cy="776" stroke-width="2" stroke="hsl(188, 50%, 50%)" fill="none" opacity="0.16"></circle><circle r="11" cx="626" cy="428" stroke-width="2" stroke="hsl(177, 50%, 50%)" fill="none" opacity="0.35"></circle><circle r="11.5" cx="604" cy="534" stroke-width="2" stroke="hsl(179, 50%, 50%)" fill="none" opacity="0.94"></circle><circle r="12" cx="886" cy="77" fill="hsl(185, 50%, 50%)" opacity="0.27"></circle><circle r="11" cx="495" cy="355" stroke-width="2" stroke="hsl(181, 50%, 50%)" fill="none" opacity="0.21"></circle><circle r="8.5" cx="1068" cy="672" fill="hsl(144, 50%, 50%)" opacity="0.89"></circle><circle r="10.5" cx="547" cy="599" stroke-width="2" stroke="hsl(182, 50%, 50%)" fill="none" opacity="0.30"></circle><circle r="10.5" cx="606" cy="733" stroke-width="2" stroke="hsl(179, 50%, 50%)" fill="none" opacity="0.30"></circle><circle r="8.5" cx="182" cy="407" fill="hsl(155, 50%, 50%)" opacity="0.36"></circle><circle r="11" cx="715" cy="483" fill="hsl(171, 50%, 50%)" opacity="0.52"></circle><circle r="10.5" cx="108" cy="131" stroke-width="2" stroke="hsl(172, 50%, 50%)" fill="none" opacity="0.89"></circle><circle r="11.5" cx="644" cy="628" fill="hsl(177, 50%, 50%)" opacity="0.36"></circle><circle r="8.5" cx="1088" cy="474" fill="hsl(144, 50%, 50%)" opacity="0.62"></circle><circle r="12.5" cx="747" cy="70" fill="hsl(220, 50%, 50%)" opacity="0.24"></circle><circle r="11.5" cx="819" cy="316" stroke-width="2" stroke="hsl(170, 50%, 50%)" fill="none" opacity="0.16"></circle><circle r="12" cx="839" cy="135" fill="hsl(184, 50%, 50%)" opacity="0.79"></circle><circle r="9.5" cx="628" cy="777" stroke-width="2" stroke="hsl(177, 50%, 50%)" fill="none" opacity="0.78"></circle><circle r="9" cx="1128" cy="451" stroke-width="2" stroke="hsl(144, 50%, 50%)" fill="none" opacity="0.27"></circle><circle r="9.5" cx="1003" cy="539" fill="hsl(151, 50%, 50%)" opacity="0.12"></circle><circle r="13" cx="1397" cy="709" stroke-width="2" stroke="hsl(232, 50%, 50%)" fill="none" opacity="0.83"></circle><circle r="11" cx="404" cy="178" stroke-width="2" stroke="hsl(170, 50%, 50%)" fill="none" opacity="0.25"></circle><circle r="10" cx="970" cy="677" fill="hsl(157, 50%, 50%)" opacity="0.60"></circle><circle r="9" cx="1084" cy="108" stroke-width="2" stroke="hsl(149, 50%, 50%)" fill="none" opacity="0.50"></circle><circle r="9.5" cx="302" cy="319" stroke-width="2" stroke="hsl(153, 50%, 50%)" fill="none" opacity="0.53"></circle><circle r="12" cx="1333" cy="555" fill="hsl(201, 50%, 50%)" opacity="0.82"></circle><circle r="11" cx="1273" cy="79" stroke-width="2" stroke="hsl(188, 50%, 50%)" fill="none" opacity="0.77"></circle><circle r="9.5" cx="163" cy="630" stroke-width="2" stroke="hsl(159, 50%, 50%)" fill="none" opacity="0.99"></circle><circle r="10" cx="1215" cy="487" fill="hsl(159, 50%, 50%)" opacity="0.32"></circle><circle r="12" cx="835" cy="77" fill="hsl(197, 50%, 50%)" opacity="0.99"></circle><circle r="7" cx="229" cy="20" fill="hsl(130, 50%, 50%)" opacity="0.88"></circle><circle r="15" cx="552" cy="27" fill="hsl(255, 50%, 50%)" opacity="0.22"></circle><circle r="12.5" cx="1300" cy="295" stroke-width="2" stroke="hsl(191, 50%, 50%)" fill="none" opacity="0.86"></circle><circle r="11.5" cx="647" cy="220" fill="hsl(175, 50%, 50%)" opacity="0.23"></circle><circle r="8.5" cx="292" cy="778" fill="hsl(153, 50%, 50%)" opacity="0.56"></circle><circle r="10.5" cx="465" cy="720" stroke-width="2" stroke="hsl(177, 50%, 50%)" fill="none" opacity="0.24"></circle><circle r="11" cx="125" cy="394" stroke-width="2" stroke="hsl(172, 50%, 50%)" fill="none" opacity="0.98"></circle><circle r="10" cx="121" cy="178" fill="hsl(172, 50%, 50%)" opacity="0.70"></circle><circle r="10" cx="136" cy="775" fill="hsl(165, 50%, 50%)" opacity="0.54"></circle><circle r="9.5" cx="390" cy="609" stroke-width="2" stroke="hsl(166, 50%, 50%)" fill="none" opacity="0.38"></circle><circle r="13.5" cx="1347" cy="324" fill="hsl(211, 50%, 50%)" opacity="0.87"></circle><circle r="10" cx="1017" cy="217" fill="hsl(151, 50%, 50%)" opacity="0.19"></circle><circle r="9.5" cx="234" cy="499" stroke-width="2" stroke="hsl(151, 50%, 50%)" fill="none" opacity="0.69"></circle><circle r="10.5" cx="946" cy="519" fill="hsl(160, 50%, 50%)" opacity="0.65"></circle><circle r="10.5" cx="399" cy="294" fill="hsl(166, 50%, 50%)" opacity="0.60"></circle><circle r="10" cx="958" cy="775" fill="hsl(157, 50%, 50%)" opacity="0.72"></circle><circle r="10.5" cx="922" cy="175" fill="hsl(167, 50%, 50%)" opacity="0.24"></circle><circle r="11.5" cx="25" cy="599" fill="hsl(208, 50%, 50%)" opacity="0.82"></circle><circle r="10" cx="1252" cy="272" fill="hsl(173, 50%, 50%)" opacity="0.73"></circle><circle r="11.5" cx="660" cy="727" stroke-width="2" stroke="hsl(175, 50%, 50%)" fill="none" opacity="0.10"></circle><circle r="10" cx="487" cy="235" fill="hsl(179, 50%, 50%)" opacity="0.72"></circle><circle r="12" cx="69" cy="184" stroke-width="2" stroke="hsl(188, 50%, 50%)" fill="none" opacity="0.57"></circle><circle r="11.5" cx="1284" cy="732" stroke-width="2" stroke="hsl(182, 50%, 50%)" fill="none" opacity="0.19"></circle><circle r="9" cx="1022" cy="676" fill="hsl(151, 50%, 50%)" opacity="0.13"></circle><circle r="12.5" cx="24" cy="548" fill="hsl(208, 50%, 50%)" opacity="0.47"></circle><circle r="11.5" cx="614" cy="274" fill="hsl(179, 50%, 50%)" opacity="0.48"></circle><circle r="11" cx="401" cy="236" stroke-width="2" stroke="hsl(170, 50%, 50%)" fill="none" opacity="0.95"></circle><circle r="7.5" cx="1125" cy="780" stroke-width="2" stroke="hsl(144, 50%, 50%)" fill="none" opacity="0.83"></circle><circle r="11.5" cx="610" cy="480" stroke-width="2" stroke="hsl(179, 50%, 50%)" fill="none" opacity="0.43"></circle><circle r="11" cx="907" cy="26" stroke-width="2" stroke="hsl(176, 50%, 50%)" fill="none" opacity="0.24"></circle><circle r="9.5" cx="1238" cy="582" stroke-width="2" stroke="hsl(166, 50%, 50%)" fill="none" opacity="0.45"></circle><circle r="12.5" cx="1398" cy="644" fill="hsl(232, 50%, 50%)" opacity="0.60"></circle><circle r="8.5" cx="273" cy="55" fill="hsl(135, 50%, 50%)" opacity="0.46"></circle><circle r="12" cx="26" cy="446" fill="hsl(208, 50%, 50%)" opacity="0.40"></circle><circle r="11" cx="627" cy="681" fill="hsl(177, 50%, 50%)" opacity="0.19"></circle><circle r="12" cx="842" cy="376" stroke-width="2" stroke="hsl(169, 50%, 50%)" fill="none" opacity="0.91"></circle><circle r="15" cx="692" cy="90" fill="hsl(220, 50%, 50%)" opacity="0.19"></circle><circle r="8" cx="1107" cy="698" fill="hsl(143, 50%, 50%)" opacity="0.24"></circle><circle r="10" cx="263" cy="553" stroke-width="2" stroke="hsl(150, 50%, 50%)" fill="none" opacity="0.10"></circle><circle r="8" cx="179" cy="493" stroke-width="2" stroke="hsl(155, 50%, 50%)" fill="none" opacity="0.17"></circle><circle r="10.5" cx="687" cy="775" fill="hsl(173, 50%, 50%)" opacity="0.83"></circle><circle r="10" cx="158" cy="305" stroke-width="2" stroke="hsl(159, 50%, 50%)" fill="none" opacity="0.32"></circle><circle r="9.5" cx="1240" cy="180" fill="hsl(166, 50%, 50%)" opacity="0.69"></circle><circle r="12.5" cx="1398" cy="169" fill="hsl(230, 50%, 50%)" opacity="0.88"></circle><circle r="10" cx="1227" cy="88" stroke-width="2" stroke="hsl(176, 50%, 50%)" fill="none" opacity="0.22"></circle><circle r="9.5" cx="1014" cy="775" fill="hsl(151, 50%, 50%)" opacity="0.78"></circle><circle r="12" cx="1294" cy="681" stroke-width="2" stroke="hsl(191, 50%, 50%)" fill="none" opacity="0.20"></circle><circle r="12" cx="619" cy="175" stroke-width="2" stroke="hsl(192, 50%, 50%)" fill="none" opacity="0.58"></circle><circle r="9.5" cx="435" cy="542" fill="hsl(174, 50%, 50%)" opacity="0.53"></circle><circle r="9.5" cx="1149" cy="669" stroke-width="2" stroke="hsl(145, 50%, 50%)" fill="none" opacity="0.66"></circle><circle r="11.5" cx="1274" cy="135" fill="hsl(186, 50%, 50%)" opacity="0.12"></circle><circle r="12" cx="503" cy="179" stroke-width="2" stroke="hsl(181, 50%, 50%)" fill="none" opacity="0.86"></circle><circle r="11.5" cx="697" cy="332" stroke-width="2" stroke="hsl(172, 50%, 50%)" fill="none" opacity="0.48"></circle><circle r="9" cx="320" cy="646" fill="hsl(155, 50%, 50%)" opacity="0.79"></circle><circle r="9.5" cx="1220" cy="137" stroke-width="2" stroke="hsl(164, 50%, 50%)" fill="none" opacity="0.74"></circle><circle r="10" cx="1201" cy="281" fill="hsl(159, 50%, 50%)" opacity="0.88"></circle><circle r="10" cx="996" cy="266" fill="hsl(154, 50%, 50%)" opacity="0.64"></circle><circle r="11" cx="63" cy="117" stroke-width="2" stroke="hsl(194, 50%, 50%)" fill="none" opacity="0.35"></circle><circle r="10" cx="1104" cy="583" fill="hsl(143, 50%, 50%)" opacity="0.16"></circle><circle r="11.5" cx="787" cy="379" stroke-width="2" stroke="hsl(170, 50%, 50%)" fill="none" opacity="0.37"></circle><circle r="10" cx="288" cy="506" stroke-width="2" stroke="hsl(151, 50%, 50%)" fill="none" opacity="0.71"></circle><circle r="10" cx="927" cy="323" fill="hsl(163, 50%, 50%)" opacity="0.24"></circle><circle r="10.5" cx="160" cy="136" stroke-width="2" stroke="hsl(151, 50%, 50%)" fill="none" opacity="0.91"></circle><circle r="8.5" cx="248" cy="406" stroke-width="2" stroke="hsl(150, 50%, 50%)" fill="none" opacity="0.68"></circle><circle r="10.5" cx="702" cy="554" fill="hsl(172, 50%, 50%)" opacity="0.88"></circle><circle r="10" cx="1093" cy="305" stroke-width="2" stroke="hsl(143, 50%, 50%)" fill="none" opacity="0.72"></circle><circle r="10.5" cx="957" cy="223" stroke-width="2" stroke="hsl(157, 50%, 50%)" fill="none" opacity="0.96"></circle><circle r="10.5" cx="1189" cy="333" stroke-width="2" stroke="hsl(153, 50%, 50%)" fill="none" opacity="0.45"></circle><circle r="9.5" cx="363" cy="711" fill="hsl(162, 50%, 50%)" opacity="0.26"></circle><circle r="10.5" cx="858" cy="468" stroke-width="2" stroke="hsl(168, 50%, 50%)" fill="none" opacity="0.70"></circle><circle r="11" cx="418" cy="123" stroke-width="2" stroke="hsl(178, 50%, 50%)" fill="none" opacity="0.57"></circle><circle r="14" cx="1395" cy="581" fill="hsl(232, 50%, 50%)" opacity="0.84"></circle></svg>